<?xml version="1.0" standalone="no"?>
<!DOCTYPE svg PUBLIC "-//W3C//DTD SVG 20010904//EN"
 "http://www.w3.org/TR/2001/REC-SVG-20010904/DTD/svg10.dtd">
<svg version="1.0" xmlns="http://www.w3.org/2000/svg"
 width="6251.000000pt" height="3745.000000pt" viewBox="0 0 6251.000000 3745.000000"
 preserveAspectRatio="xMidYMid meet">

<g transform="translate(0.000000,3745.000000) scale(0.100000,-0.100000)"
fill="#000000" stroke="none">
<path d="M11988 29264 c-373 -67 -671 -349 -770 -729 -21 -79 -21 -97 -30
-2210 -10 -2630 -9 -2959 16 -3035 36 -111 86 -191 176 -281 91 -92 175 -142
295 -176 56 -15 329 -16 3935 -14 2452 1 3912 6 3975 12 146 14 257 44 374
101 87 42 117 62 182 127 65 66 85 95 127 182 57 118 78 194 89 324 5 50 8
1211 8 2580 l0 2490 -23 73 c-82 268 -275 461 -542 544 l-75 23 -3830 2
c-3230 1 -3842 -1 -3907 -13z m7376 -3211 c-4 -1226 -7 -2229 -8 -2230 -3 -4
-7168 -5 -7172 -1 -2 3 -1 1007 3 2231 l6 2227 3589 0 3588 0 -6 -2227z"/>
<path d="M17074 27666 c-213 -35 -386 -122 -544 -273 -135 -128 -229 -289
-282 -481 -32 -115 -32 -372 1 -492 138 -515 636 -835 1156 -745 307 54 584
261 722 540 80 160 107 281 106 465 -1 111 -5 152 -26 233 -116 440 -492 744
-942 762 -65 3 -143 -1 -191 -9z"/>
<path d="M43110 20435 l0 -2625 2258 2 2257 3 3 1893 2 1892 -1830 0 -1830 0
0 730 0 730 -430 0 -430 0 0 -2625z m3650 -730 l0 -1035 -1395 0 -1395 0 0
1035 0 1035 1395 0 1395 0 0 -1035z"/>
<path d="M10735 22346 c-99 -24 -182 -71 -259 -148 -71 -71 -88 -101 -789
-1333 -745 -1312 -2001 -3490 -2012 -3490 -4 0 -124 191 -267 425 -142 234
-297 486 -342 561 l-83 135 287 492 c206 352 292 509 305 554 25 89 23 215 -5
298 -34 102 -761 1367 -820 1429 -61 63 -125 104 -209 133 -64 22 -78 23 -411
23 l-345 0 -68 -27 c-164 -66 -278 -195 -322 -365 -65 -250 84 -517 336 -604
49 -17 98 -23 208 -28 l144 -6 202 -354 202 -353 -206 -354 -206 -354 -415 3
-414 2 -184 320 c-101 176 -191 336 -202 355 l-18 35 40 65 c102 168 128 241
128 365 0 142 -51 266 -148 363 -200 200 -526 201 -722 3 -41 -41 -97 -125
-208 -314 -84 -141 -163 -283 -174 -315 -30 -81 -30 -243 0 -325 12 -33 191
-355 398 -717 422 -739 422 -738 569 -811 57 -28 101 -42 155 -49 41 -5 319
-10 617 -10 l541 0 518 -852 c285 -469 545 -886 578 -927 110 -136 259 -239
401 -276 75 -19 211 -19 295 1 182 42 350 176 495 394 35 54 766 1306 1638
2805 212 365 1354 2381 1397 2466 184 363 -92 803 -500 798 -41 0 -98 -6 -125
-13z"/>
<path d="M20550 22344 c-255 -67 -433 -310 -417 -569 3 -44 14 -108 26 -142
19 -57 1024 -1843 1428 -2538 840 -1445 1603 -2751 1638 -2805 185 -278 392
-409 645 -410 227 0 430 123 601 365 20 28 262 422 538 878 l503 827 541 0
c298 0 576 5 617 10 54 7 98 21 155 49 147 72 152 80 573 818 205 358 382 678
394 710 30 82 30 244 0 325 -11 32 -90 174 -174 315 -111 189 -167 273 -208
314 -196 198 -518 197 -721 -1 -97 -95 -149 -222 -149 -365 0 -124 26 -197
128 -365 l40 -65 -18 -35 c-11 -19 -101 -179 -202 -355 l-184 -320 -414 -2
-415 -3 -206 354 -206 354 202 353 202 354 144 6 c212 9 315 51 426 172 247
271 135 699 -217 828 -64 24 -71 24 -405 24 -328 0 -342 -1 -406 -23 -84 -29
-148 -70 -208 -132 -61 -63 -793 -1339 -823 -1434 -28 -85 -27 -219 1 -306 14
-42 121 -236 305 -549 l283 -485 -83 -135 c-45 -75 -200 -327 -342 -561 -143
-234 -263 -425 -267 -425 -11 0 -1268 2179 -2012 3490 -701 1234 -718 1262
-790 1333 -111 111 -238 163 -396 161 -40 0 -97 -7 -127 -15z"/>
<path d="M32900 19705 l0 -1895 430 0 430 0 0 1465 0 1465 1830 0 1830 0 0
430 0 430 -2260 0 -2260 0 0 -1895z"/>
<path d="M38000 19705 l0 -1895 2260 0 2260 0 0 1895 0 1895 -2260 0 -2260 0
0 -1895z m3660 0 l0 -1035 -1397 2 -1398 3 -3 1033 -2 1032 1400 0 1400 0 0
-1035z"/>
<path d="M48210 19705 l0 -1895 2260 0 2260 0 0 1895 0 1895 -2260 0 -2260 0
0 -1895z m3660 0 l0 -1035 -1400 0 -1400 0 0 1035 0 1035 1400 0 1400 0 0
-1035z"/>
<path d="M14055 19905 c-153 -29 -252 -82 -365 -195 l-85 -85 -830 -1439
c-456 -791 -845 -1468 -863 -1504 -92 -179 -97 -433 -11 -606 12 -22 400 -698
863 -1501 l841 -1460 85 -86 c73 -74 99 -93 180 -132 52 -25 120 -51 150 -59
45 -11 373 -13 1810 -13 l1755 0 75 23 c130 41 206 87 300 182 l85 86 830
1438 c457 791 845 1468 863 1503 95 186 96 438 3 619 -16 33 -405 709 -863
1504 l-834 1445 -85 86 c-68 69 -100 93 -169 127 -171 84 8 77 -1935 79 -1402
1 -1743 -1 -1800 -12z m3234 -1035 c23 -18 226 -361 732 -1237 688 -1193 699
-1212 699 -1265 0 -52 -15 -78 -699 -1263 -580 -1004 -705 -1215 -736 -1237
l-38 -28 -1422 0 -1422 0 -39 29 c-32 23 -77 95 -240 377 -110 192 -425 737
-698 1212 -474 820 -498 864 -498 912 0 47 31 103 697 1257 383 664 704 1215
712 1225 44 50 -31 48 1499 45 l1421 -2 32 -25z"/>
<path d="M8446 15504 c-86 -21 -185 -77 -250 -142 -104 -103 -155 -218 -163
-372 -7 -123 10 -192 84 -330 31 -58 525 -910 1098 -1895 867 -1488 1569
-2711 1592 -2772 4 -11 -249 -13 -1532 -13 -1296 0 -1536 2 -1532 14 3 7 243
433 533 947 290 513 536 958 547 988 25 71 34 223 17 300 -22 101 -67 180
-149 262 -116 116 -224 161 -389 160 -179 0 -338 -84 -439 -231 -16 -25 -336
-585 -709 -1245 -483 -854 -686 -1223 -706 -1280 -56 -164 -56 -327 0 -490 42
-122 85 -188 187 -291 99 -100 187 -152 325 -196 l75 -23 8790 0 8790 0 75 23
c245 77 431 254 512 487 52 151 53 332 3 482 -18 53 -240 462 -713 1312 -665
1197 -689 1238 -757 1307 -216 219 -553 220 -769 2 -110 -112 -160 -234 -159
-388 1 -151 -49 -50 726 -1445 l384 -690 -1535 -3 c-845 -1 -1537 0 -1539 2
-2 2 613 1065 1368 2362 755 1298 1384 2386 1398 2419 37 92 48 202 28 300
-53 260 -254 437 -512 452 -111 6 -200 -13 -296 -63 -144 -76 -32 106 -1715
-2783 -844 -1449 -1542 -2643 -1551 -2653 -15 -17 -157 -18 -3728 -18 -2954 0
-3714 3 -3727 13 -9 6 -294 494 -634 1082 -1161 2014 -1601 2780 -1623 2822
-12 24 -149 253 -305 510 -155 258 -336 560 -402 673 -134 232 -187 293 -302
353 -122 64 -265 83 -396 51z"/>
<path d="M40580 10292 l0 -1532 340 0 340 0 2 797 3 796 903 -772 c497 -425
909 -770 915 -768 7 2 417 349 912 771 l900 766 3 -795 2 -795 340 0 340 0 0
1530 0 1530 -1007 -857 c-555 -471 -1118 -951 -1252 -1065 -207 -175 -247
-206 -260 -195 -12 9 -2390 2042 -2463 2105 -17 14 -18 -59 -18 -1516z"/>
<path d="M49303 10262 c-736 -807 -1347 -1478 -1357 -1490 l-19 -22 1957 0
c1103 0 1956 4 1954 9 -1 4 -137 155 -302 335 l-298 326 -891 2 -891 3 573
630 c315 347 583 640 595 653 l23 23 199 -218 c110 -120 386 -423 614 -673
508 -558 949 -1037 982 -1068 l25 -22 448 2 448 3 -394 435 c-216 239 -578
638 -803 885 -226 248 -548 601 -716 785 -360 396 -770 840 -792 858 -14 11
-193 -181 -1355 -1456z"/>
<path d="M32895 11678 c-3 -7 -4 -665 -3 -1463 l3 -1450 2498 -3 2497 -2 0
1465 0 1465 -340 0 -340 0 0 -1130 0 -1130 -1820 0 -1820 0 0 1130 0 1130
-335 0 c-259 0 -337 -3 -340 -12z"/>
<path d="M47015 10750 c-247 -65 -420 -233 -496 -480 -30 -95 -32 -261 -6
-360 85 -317 382 -536 702 -517 189 12 316 69 451 202 75 75 98 105 132 175
53 110 72 191 72 315 0 317 -209 587 -518 666 -98 25 -241 25 -337 -1z"/>
</g>
</svg>
